<svg width="181" height="111" viewBox="0 0 181 111" fill="none" xmlns="http://www.w3.org/2000/svg">
<g id="Isolation_Mode" clip-path="url(#clip0_4_3843)">
<path id="Vector" d="M8.23981 40.3931V56.1066H34.2509V63.2845H0V15.9158C0 14.4549 0.388876 13.3349 1.17258 12.5539C1.9543 11.7748 3.15069 11.3823 4.76373 11.3823H30.8522C33.4215 11.3823 34.7072 12.5915 34.7072 15.0079C34.7072 15.8643 34.5822 16.6215 34.3302 17.2737C34.0782 17.9298 33.8759 18.3818 33.7251 18.6335H8.23981V33.2132H29.7887C32.36 33.2132 33.6457 34.3966 33.6457 36.7635C33.6457 37.6198 33.5187 38.3771 33.2668 39.0292C33.0148 39.6854 32.8144 40.1373 32.6636 40.3891H8.23981V40.3931Z" fill="#1C26A8"/>
<path id="Vector_2" d="M88.4674 37.2947C88.4674 41.2236 87.8384 44.7858 86.5786 47.9852C85.3167 51.1846 83.4894 53.9162 81.0966 56.182C78.6998 58.4497 75.8031 60.1981 72.4004 61.433C68.9998 62.668 65.1805 63.2845 60.9445 63.2845H42.6475V15.9158C42.6475 14.4549 43.0482 13.3349 43.8558 12.5539C44.6613 11.7748 45.8696 11.3823 47.4846 11.3823H60.2639C61.9782 11.3823 63.6408 11.4577 65.2539 11.6083C66.8669 11.759 68.3292 12.0127 69.6406 12.3636C75.4876 13.6738 80.0867 16.4946 83.4398 20.8239C86.7908 25.1572 88.4674 30.6462 88.4674 37.2928V37.2947ZM79.924 37.2947C79.924 32.5115 78.801 28.5311 76.5571 25.3594C74.3131 22.1878 71.1525 20.0964 67.0673 19.0894C64.7479 18.5364 62.3532 18.2589 59.885 18.2589H50.8853V56.4099H60.4881C63.6666 56.4099 66.4622 55.9322 68.8827 54.9747C71.3033 54.0173 73.331 52.6951 74.9698 51.0082C76.6067 49.3213 77.8427 47.3053 78.6741 44.9642C79.5054 42.6211 79.922 40.066 79.922 37.2967L79.924 37.2947Z" fill="#1C26A8"/>
<path id="Vector_3" d="M94.0625 15.9158C94.0625 14.4549 94.4514 13.3349 95.2351 12.5539C96.0168 11.7748 97.2132 11.3823 98.8262 11.3823H113.421C116.395 11.3823 118.941 11.749 121.058 12.4765C123.173 13.208 124.913 14.1892 126.274 15.4242C127.635 16.6592 128.645 18.0824 129.297 19.6921C129.954 21.3056 130.282 23.0164 130.282 24.8301C130.282 26.6439 130.006 28.1425 129.45 29.4766C128.895 30.8107 128.242 31.9565 127.484 32.9139C126.73 33.8713 125.958 34.6266 125.179 35.1816C124.397 35.7367 123.754 36.1133 123.252 36.3135C124.512 36.6664 125.734 37.2075 126.919 37.939C128.101 38.6685 129.125 39.5625 129.98 40.621C130.837 41.6796 131.532 42.9125 132.061 44.3239C132.591 45.7353 132.855 47.2716 132.855 48.9327C132.855 50.4432 132.589 52.0429 132.061 53.7299C131.532 55.4168 130.597 56.9669 129.264 58.3763C127.926 59.7857 126.139 60.9573 123.897 61.8889C121.653 62.8226 118.816 63.2865 115.389 63.2865H94.0685V15.9158H94.0625ZM122.04 25.4347C122.04 22.9172 121.169 21.0658 119.431 19.8824C117.691 18.6989 114.98 18.1062 111.302 18.1062H102.154V33.3678H112.814C116.09 33.3678 118.447 32.6007 119.885 31.0644C121.32 29.5282 122.04 27.6529 122.04 25.4367V25.4347ZM124.383 48.3995C124.383 46.1338 123.613 44.1693 122.077 42.5062C120.54 40.845 118.131 40.0125 114.855 40.0125H102.154V56.5566H114.705C118.032 56.5566 120.476 55.8013 122.042 54.2889C123.601 52.7784 124.385 50.8139 124.385 48.3955L124.383 48.3995Z" fill="#1C26A8"/>
<g id="Group">
<path id="Vector_4" d="M8.24176 78.9127V85.7437C8.24176 85.8963 8.28541 86.0093 8.37469 86.0846C8.45009 86.1739 8.55128 86.2175 8.68024 86.2175H9.21197V88.1522H8.01558C7.43226 88.1522 6.90649 87.9183 6.43825 87.4504C5.71804 88.0451 4.91251 88.3425 4.02761 88.3425C3.02765 88.3425 2.16656 88.0253 1.44437 87.393C0.482096 86.495 0.00195312 85.2917 0.00195312 83.7872C0.00195312 82.4095 0.446383 81.2637 1.33127 80.3539C2.14077 79.5332 3.13479 79.1209 4.31332 79.1209C4.97203 79.1209 5.62875 79.2596 6.28746 79.5372L7.10489 78.9108H8.24573L8.24176 78.9127ZM5.92438 81.3609C5.47995 81.1963 5.05734 81.1131 4.65061 81.1131C3.96809 81.1131 3.40263 81.3628 2.96019 81.8624C2.51576 82.3619 2.29553 83.0101 2.29553 83.807C2.29553 84.6039 2.49393 85.2422 2.89273 85.7219C3.29153 86.2036 3.82722 86.4434 4.49784 86.4434C4.95417 86.4434 5.42836 86.3423 5.92239 86.1402V81.3589L5.92438 81.3609ZM4.11888 75.2515C4.46212 75.2515 4.7518 75.3704 4.99187 75.6103C5.23194 75.8501 5.35297 76.1435 5.35297 76.4825C5.35297 76.8214 5.23194 77.097 4.99187 77.3368C4.7518 77.5767 4.46014 77.6956 4.11888 77.6956C3.77762 77.6956 3.48597 77.5767 3.24589 77.3368C3.00582 77.097 2.88479 76.8115 2.88479 76.4825C2.88479 76.1534 3.00384 75.8501 3.24589 75.6103C3.48795 75.3704 3.77762 75.2515 4.11888 75.2515ZM7.00569 75.2515C7.34893 75.2515 7.63861 75.3704 7.87868 75.6103C8.11875 75.8501 8.23978 76.1435 8.23978 76.4825C8.23978 76.8214 8.11875 77.097 7.87868 77.3368C7.63861 77.5767 7.34695 77.6956 7.00569 77.6956C6.66443 77.6956 6.39063 77.5767 6.15254 77.3368C5.91446 77.097 5.79144 76.8115 5.79144 76.4825C5.79144 76.1534 5.91049 75.8501 6.15254 75.6103C6.39262 75.3704 6.67832 75.2515 7.00569 75.2515Z" fill="#1C26A8"/>
<path id="Vector_5" d="M14.7952 79.4258V86.2191H15.7634V88.1538H15.0987L14.3964 87.3767H14.3587C13.9281 87.8941 13.3905 88.1538 12.7437 88.1538H9.0791V86.2191H11.9481C12.1246 86.2191 12.2516 86.1675 12.327 86.0664C12.4401 85.9653 12.4976 85.8385 12.4976 85.6878V79.4258H14.7952ZM10.6743 89.5394C11.0155 89.5394 11.3072 89.6583 11.5473 89.8982C11.7873 90.1381 11.9084 90.4294 11.9084 90.7704C11.9084 91.1114 11.7893 91.4027 11.5473 91.6426C11.3052 91.8825 11.0155 92.0034 10.6743 92.0034C10.333 92.0034 10.0394 91.8825 9.8013 91.6426C9.56123 91.4027 9.4402 91.1114 9.4402 90.7704C9.4402 90.4294 9.55925 90.1381 9.8013 89.8982C10.0414 89.6583 10.333 89.5394 10.6743 89.5394ZM13.5611 89.5394C13.9043 89.5394 14.194 89.6583 14.4341 89.8982C14.6742 90.1381 14.7952 90.4294 14.7952 90.7704C14.7952 91.1114 14.6761 91.4027 14.4341 91.6426C14.194 91.8825 13.9024 92.0034 13.5611 92.0034C13.2198 92.0034 12.946 91.8825 12.708 91.6426C12.4679 91.4027 12.3469 91.1114 12.3469 90.7704C12.3469 90.4294 12.4659 90.1381 12.708 89.8982C12.948 89.6583 13.2337 89.5394 13.5611 89.5394Z" fill="#1C26A8"/>
<path id="Vector_6" d="M19.0092 86.2172C18.7057 85.4838 18.5529 84.6612 18.5529 83.7513C18.5529 82.2586 19.0132 81.101 19.9378 80.2783C20.7096 79.5825 21.6976 79.2277 22.9 79.2158C23.9753 79.2158 24.8563 79.4696 25.5388 79.975C26.376 80.6074 26.7927 81.5192 26.7927 82.7086V85.7455C26.7927 85.8585 26.8244 85.9655 26.8879 86.0686C26.9891 86.1697 27.1042 86.2212 27.2312 86.2212H27.4018V88.1559H26.5665C25.9971 88.1559 25.509 87.9537 25.1043 87.5493C24.4852 88.3343 23.6619 88.7268 22.6361 88.7268C21.5349 88.7268 20.5985 88.3205 19.8267 87.5117H19.789L19.2572 88.1579H15.6304V86.2232H19.0112L19.0092 86.2172ZM24.4773 82.7066C24.4773 82.2388 24.3325 81.8582 24.0408 81.5688C23.7749 81.2774 23.396 81.1327 22.902 81.1327C22.2809 81.1327 21.7849 81.3725 21.4099 81.8523C21.0369 82.334 20.8504 82.9782 20.8504 83.787C20.8504 84.673 21.0409 85.3926 21.4199 85.9496C21.7988 86.5067 22.2869 86.7862 22.8821 86.7862C23.4257 86.7862 23.9575 86.5265 24.4773 86.0071V82.7066Z" fill="#1C26A8"/>
<path id="Vector_7" d="M32.9871 79.4262V86.2194H33.9553V88.1542H33.2906L32.5883 87.3771H32.5506C32.12 87.8945 31.5824 88.1542 30.9356 88.1542H27.271V86.2194H30.14C30.3165 86.2194 30.4435 86.1679 30.5189 86.0668C30.632 85.9657 30.6895 85.8388 30.6895 85.6882V79.4262H32.9871ZM31.8284 75.2515C32.1716 75.2515 32.4633 75.3704 32.7014 75.6103C32.9395 75.8501 33.0625 76.1435 33.0625 76.4825C33.0625 76.8214 32.9434 77.097 32.7014 77.3368C32.4613 77.5767 32.1696 77.6956 31.8284 77.6956C31.4871 77.6956 31.2133 77.5767 30.9752 77.3368C30.7372 77.097 30.6141 76.8115 30.6141 76.4825C30.6141 76.1534 30.7332 75.8501 30.9752 75.6103C31.2153 75.3704 31.501 75.2515 31.8284 75.2515Z" fill="#1C26A8"/>
<path id="Vector_8" d="M39.5383 79.4262V86.2194H40.5066V88.1542H39.8419L39.1396 87.3771H39.1019C38.6713 87.8945 38.1336 88.1542 37.4868 88.1542H33.8223V86.2194H36.6912C36.8678 86.2194 36.9948 86.1679 37.0702 86.0668C37.1833 85.9657 37.2408 85.8388 37.2408 85.6882V79.4262H39.5383ZM35.6635 75.2515C36.0067 75.2515 36.2964 75.3704 36.5365 75.6103C36.7765 75.8501 36.8976 76.1435 36.8976 76.4825C36.8976 76.8214 36.7765 77.097 36.5365 77.3368C36.2964 77.5767 36.0047 77.6956 35.6635 77.6956C35.3222 77.6956 35.0306 77.5767 34.7905 77.3368C34.5504 77.097 34.4294 76.8115 34.4294 76.4825C34.4294 76.1534 34.5504 75.8501 34.7905 75.6103C35.0306 75.3704 35.3222 75.2515 35.6635 75.2515ZM38.5503 75.2515C38.8915 75.2515 39.1832 75.3704 39.4233 75.6103C39.6633 75.8501 39.7844 76.1435 39.7844 76.4825C39.7844 76.8214 39.6653 77.097 39.4233 77.3368C39.1832 77.5767 38.8915 77.6956 38.5503 77.6956C38.209 77.6956 37.9352 77.5767 37.6952 77.3368C37.4551 77.097 37.3341 76.8115 37.3341 76.4825C37.3341 76.1534 37.4551 75.8501 37.6952 75.6103C37.9352 75.3704 38.2209 75.2515 38.5503 75.2515Z" fill="#1C26A8"/>
<path id="Vector_9" d="M46.0918 74.5674V86.2173H47.06V88.152H46.4132L45.693 87.375H45.6553C45.2248 87.8923 44.6871 88.152 44.0403 88.152H40.3757V86.2173H43.3002C43.453 86.2173 43.578 86.1658 43.6792 86.0647C43.7546 85.9378 43.7923 85.8308 43.7923 85.7416V74.5654H46.0898L46.0918 74.5674Z" fill="#1C26A8"/>
<path id="Vector_10" d="M52.6431 74.5674V86.0666C52.6431 86.5979 52.4725 87.0538 52.1292 87.4324C51.7364 87.9141 51.2245 88.154 50.5896 88.154H46.925V86.2193H49.8496C49.9884 86.2193 50.1075 86.1677 50.2087 86.0666C50.298 85.9794 50.3416 85.8704 50.3416 85.7435V74.5674H52.6391H52.6431Z" fill="#1C26A8"/>
<path id="Vector_11" d="M74.7675 79.426V86.0666C74.7675 86.5979 74.6028 87.0479 74.2734 87.4146C73.8687 87.9082 73.3488 88.154 72.7159 88.154H62.0814C61.258 88.154 60.5497 87.8884 59.9544 87.3571C59.1569 86.6871 58.7581 85.8149 58.7581 84.7385V81.7413L59.9346 80.7918H61.0754V84.7385C61.0754 85.1825 61.2282 85.5433 61.5318 85.8208C61.8214 86.0865 62.1587 86.2193 62.5377 86.2193H71.9759C72.2913 86.2193 72.4501 86.0607 72.4501 85.7455V79.426H74.7675ZM65.3293 78.9146C65.6705 78.9146 65.9622 79.0335 66.2023 79.2753C66.4423 79.5172 66.5614 79.8066 66.5614 80.1475C66.5614 80.4885 66.4423 80.7819 66.2023 81.0197C65.9622 81.2576 65.6705 81.3805 65.3293 81.3805C64.988 81.3805 64.7142 81.2616 64.4741 81.0197C64.2341 80.7799 64.115 80.4885 64.115 80.1475C64.115 79.8066 64.2341 79.5152 64.4741 79.2753C64.7142 79.0355 64.9999 78.9146 65.3293 78.9146ZM68.2339 78.9146C68.5633 78.9146 68.849 79.0335 69.0871 79.2753C69.3272 79.5152 69.4482 79.8066 69.4482 80.1475C69.4482 80.4885 69.3291 80.7819 69.0871 81.0197C68.847 81.2596 68.5613 81.3805 68.2339 81.3805C67.9066 81.3805 67.599 81.2616 67.361 81.0197C67.1209 80.7799 66.9999 80.4885 66.9999 80.1475C66.9999 79.8066 67.1189 79.5152 67.361 79.2753C67.601 79.0355 67.8927 78.9146 68.2339 78.9146Z" fill="#1C26A8"/>
<path id="Vector_12" d="M79.7056 74.5674V87.6802L78.527 88.6277H77.3882V74.5674H79.7056Z" fill="#1C26A8"/>
<path id="Vector_13" d="M86.3345 79.4258V87.6979C86.3345 89.2658 85.8543 90.479 84.892 91.3413C84.271 91.9102 83.4734 92.3087 82.4973 92.5366C82.0409 92.6238 81.5668 92.6694 81.0727 92.6694C80.908 92.6694 80.6858 92.6555 80.4081 92.6318L79.4775 91.4741V90.6574C79.8823 90.7208 80.2751 90.7526 80.6561 90.7526C82.8961 90.7526 84.0171 89.6643 84.0171 87.4897V79.4258H86.3345Z" fill="#1C26A8"/>
<path id="Vector_14" d="M91.2707 74.5674V85.7435C91.2707 85.8704 91.3084 85.9715 91.3838 86.0468C91.4592 86.1598 91.5802 86.2173 91.7449 86.2173H92.2389V88.152H91.0049C90.485 88.152 90.0307 87.9677 89.6378 87.6029C89.1815 87.1847 88.9553 86.6732 88.9553 86.0647V74.5654H91.2727L91.2707 74.5674Z" fill="#1C26A8"/>
<path id="Vector_15" d="M95.5067 82.7067C95.5067 81.5054 95.9234 80.5935 96.7606 79.9731C97.4193 79.4676 98.3181 79.2139 99.457 79.2139C100.596 79.2139 101.514 79.5429 102.286 80.201C103.262 81.0356 103.748 82.219 103.748 83.7493C103.748 85.1905 103.362 86.3858 102.59 87.3353C101.842 88.259 100.874 88.7209 99.6832 88.7209C98.6316 88.7209 97.8042 88.3284 97.1951 87.5434C96.7884 87.9478 96.2964 88.15 95.713 88.15H92.0862V86.2153H95.0107C95.1496 86.2153 95.2706 86.1638 95.3718 86.0627C95.4591 85.9754 95.5047 85.8664 95.5047 85.7396V82.7027L95.5067 82.7067ZM97.8042 86.0072C98.2725 86.5126 98.8102 86.7664 99.4173 86.7664C100.024 86.7664 100.501 86.5047 100.88 85.9794C101.259 85.4541 101.449 84.7762 101.449 83.9396C101.449 83.0298 101.241 82.3142 100.822 81.7968C100.443 81.3528 99.949 81.1327 99.3399 81.1327C98.8836 81.1327 98.5225 81.2774 98.2586 81.5688C97.955 81.8463 97.8023 82.2269 97.8023 82.7067V86.0072H97.8042Z" fill="#1C26A8"/>
<path id="Vector_16" d="M115.903 74.5674V86.0666C115.903 86.6118 115.726 87.0717 115.371 87.4523C114.966 87.9201 114.46 88.154 113.851 88.154H106.237L105.286 86.9765V86.2173H109.901L106.768 76.9006H108.933L112.086 86.2173H113.111C113.264 86.2173 113.389 86.1658 113.49 86.0647C113.554 85.9636 113.585 85.8565 113.585 85.7415V74.5654H115.903V74.5674ZM110.814 92.8401C110.597 92.4972 110.49 92.1384 110.49 91.7578C110.49 91.2146 110.651 90.7785 110.974 90.4495C111.298 90.1204 111.73 89.9559 112.276 89.9559C112.566 89.9559 112.891 90.0134 113.244 90.1283V91.1334C112.99 91.058 112.756 91.0204 112.542 91.0204C111.984 91.0204 111.707 91.3237 111.707 91.9302C111.707 92.1582 111.77 92.3604 111.897 92.5368C112.05 92.739 112.276 92.8401 112.58 92.8401H113.871V93.3139L113.415 93.8649H110.054V92.8401H110.814Z" fill="#1C26A8"/>
<path id="Vector_17" d="M120.841 74.5674V87.6802L119.663 88.6277H118.524V74.5674H120.841Z" fill="#1C26A8"/>
<path id="Vector_18" d="M136.489 86.2175C135.894 85.4206 135.597 84.5028 135.597 83.4661C135.597 82.0864 136.077 81.0001 137.039 80.2032C137.849 79.5332 138.856 79.1982 140.059 79.1982C140.981 79.1982 141.773 79.4262 142.432 79.8801C143.382 80.5006 143.856 81.4422 143.856 82.7069V86.0847C143.856 86.6794 143.64 87.1789 143.209 87.5833C142.791 87.9619 142.323 88.1522 141.805 88.1522H130.295C129.46 88.1522 128.726 87.8668 128.093 87.2998C127.345 86.6417 126.972 85.7873 126.972 84.7367V81.7395L128.15 80.79H129.289V84.7367C129.289 85.1411 129.428 85.4841 129.708 85.7616C129.974 86.0649 130.321 86.2175 130.752 86.2175H136.487H136.489ZM141.541 82.7069C141.541 82.2391 141.402 81.8584 141.124 81.569C140.846 81.2776 140.485 81.1329 140.041 81.1329C139.37 81.1329 138.845 81.353 138.466 81.797C138.087 82.2391 137.896 82.8536 137.896 83.6366C137.896 84.4196 138.122 85.0479 138.571 85.5158C139.019 85.9836 139.624 86.2175 140.384 86.2175H141.067C141.382 86.2175 141.541 86.0589 141.541 85.7437V82.7069ZM140.061 75.2495C140.402 75.2495 140.694 75.3685 140.934 75.6083C141.174 75.8482 141.295 76.1415 141.295 76.4805C141.295 76.8195 141.176 77.095 140.934 77.3349C140.694 77.5747 140.402 77.6937 140.061 77.6937C139.72 77.6937 139.426 77.5747 139.188 77.3349C138.948 77.095 138.827 76.8096 138.827 76.4805C138.827 76.1515 138.946 75.8482 139.188 75.6083C139.43 75.3685 139.72 75.2495 140.061 75.2495Z" fill="#1C26A8"/>
<path id="Vector_19" d="M150.656 79.4258V86.2191H151.624V88.1538H150.636C150.535 89.6722 149.934 90.8358 148.832 91.6446C147.92 92.3146 146.799 92.6496 145.469 92.6496C145.241 92.6496 144.995 92.6437 144.729 92.6318L143.799 91.4741V90.6574C144.204 90.7208 144.596 90.7526 144.977 90.7526C147.217 90.7526 148.338 89.6643 148.338 87.4897V79.4258H150.656Z" fill="#1C26A8"/>
<path id="Vector_20" d="M157.209 82.6135C158.905 80.324 161.001 79.1782 163.494 79.1782C165.014 79.1782 166.268 79.654 167.256 80.6015C168.155 81.4618 168.605 82.5481 168.605 83.8643V85.6107C168.605 85.6861 168.599 85.7951 168.588 85.9339V86.2193H169.215V88.154H168.836L168.209 87.377H168.151C167.732 87.8943 167.195 88.154 166.536 88.154H151.495V86.2193H154.913L154.896 79.426H157.213V82.6135H157.209ZM166.286 83.9793C166.272 83.0694 165.925 82.3479 165.242 81.8166C164.661 81.3865 163.957 81.1704 163.135 81.1704C161.87 81.1704 160.697 81.6957 159.622 82.7444C158.634 83.567 157.83 84.7247 157.211 86.2173H165.814C166.131 86.2173 166.29 86.0587 166.29 85.7435V83.9793H166.286Z" fill="#1C26A8"/>
<path id="Vector_21" d="M172.478 82.7067C172.478 81.5054 172.895 80.5935 173.732 79.9731C174.391 79.4676 175.29 79.2139 176.429 79.2139C177.567 79.2139 178.486 79.5429 179.258 80.201C180.234 81.0356 180.72 82.219 180.72 83.7493C180.72 85.1905 180.333 86.3858 179.561 87.3353C178.813 88.259 177.845 88.7209 176.657 88.7209C175.605 88.7209 174.778 88.3284 174.169 87.5434C173.762 87.9478 173.27 88.15 172.687 88.15H169.06V86.2153H171.984C172.123 86.2153 172.244 86.1638 172.345 86.0627C172.433 85.9754 172.478 85.8664 172.478 85.7396V82.7027V82.7067ZM174.776 86.0072C175.244 86.5126 175.782 86.7664 176.389 86.7664C176.996 86.7664 177.472 86.5047 177.851 85.9794C178.23 85.4541 178.421 84.7762 178.421 83.9396C178.421 83.0298 178.212 82.3142 177.794 81.7968C177.415 81.3528 176.921 81.1327 176.312 81.1327C175.855 81.1327 175.494 81.2774 175.23 81.5688C174.927 81.8463 174.774 82.2269 174.774 82.7067V86.0072H174.776Z" fill="#1C26A8"/>
</g>
<g id="Group_2">
<path id="Vector_22" d="M165.006 0C148.614 17.3371 151.933 47.9792 163.237 62.6481C163.135 57.0382 168.141 54.8201 180.722 56.5605C163.288 48.3677 152.917 19.9894 165.008 0L165.006 0Z" fill="#1C26A8"/>
<path id="Vector_23" d="M162.858 0.0297852C123.805 24.4753 130.317 72.0363 171.871 71.9708C152.892 65.8099 142.158 20.9231 162.858 0.0297852Z" fill="#1C26A8"/>
</g>
<g id="Group_3">
<path id="Vector_24" d="M0.0397949 108.357V100.323C0.0397949 99.6354 0.396926 99.2925 1.1092 99.2925H5.58525C5.92055 99.2925 6.15467 99.3638 6.2876 99.5046C6.42054 99.6453 6.488 99.8475 6.488 100.109C6.488 100.311 6.45823 100.492 6.4007 100.65C6.34316 100.809 6.29554 100.914 6.26181 100.966H1.95441V102.956H5.4047C5.74 102.956 5.97214 103.027 6.10507 103.168C6.23602 103.309 6.30149 103.511 6.30149 103.772C6.30149 103.975 6.27372 104.155 6.21419 104.314C6.15467 104.472 6.10904 104.577 6.07531 104.629H1.95441V106.678H6.41657V108.354H0.0397949V108.357Z" fill="#1C26A8"/>
<path id="Vector_25" d="M8.15067 108.357V102.04C8.1844 102.022 8.28558 101.978 8.45423 101.907C8.62287 101.835 8.84112 101.762 9.10897 101.687C9.3788 101.611 9.69625 101.546 10.0613 101.489C10.4284 101.433 10.8291 101.405 11.2676 101.405C11.8053 101.405 12.3013 101.485 12.7596 101.647C13.218 101.81 13.585 102.075 13.8648 102.446C14.085 102.161 14.3866 101.917 14.7715 101.711C15.1564 101.506 15.6385 101.403 16.2179 101.403C16.6048 101.403 16.9698 101.459 17.3131 101.566C17.6583 101.675 17.9579 101.837 18.2118 102.054C18.4658 102.27 18.6682 102.535 18.813 102.852C18.9559 103.17 19.0273 103.536 19.0273 103.947V108.353H17.1781V104.466C17.1781 103.445 16.7476 102.934 15.8885 102.934C15.458 102.934 15.1207 103.076 14.8727 103.362C14.6247 103.647 14.5016 104.081 14.5016 104.664V108.351H12.6505V104.567C12.6505 104.014 12.5354 103.604 12.3093 103.334C12.0831 103.066 11.718 102.932 11.216 102.932C10.847 102.932 10.5732 102.963 10.3986 103.027C10.224 103.088 10.0911 103.142 9.99981 103.183V108.351H8.14868L8.15067 108.357Z" fill="#1C26A8"/>
<path id="Vector_26" d="M20.6204 99.6334C20.6204 99.3499 20.7215 99.112 20.9259 98.9217C21.1303 98.7314 21.3723 98.6343 21.6521 98.6343C21.9457 98.6343 22.1917 98.7314 22.3941 98.9217C22.5965 99.112 22.6977 99.3499 22.6977 99.6334C22.6977 99.9168 22.5965 100.159 22.3941 100.355C22.1917 100.553 21.9457 100.65 21.6521 100.65C21.3584 100.65 21.1263 100.551 20.9239 100.355C20.7215 100.157 20.6204 99.9168 20.6204 99.6334ZM20.7434 108.357V102.416C20.7434 102.115 20.8307 101.909 21.0073 101.798C21.1819 101.687 21.416 101.63 21.7037 101.63C21.906 101.63 22.0925 101.651 22.2651 101.695C22.4358 101.739 22.5469 101.768 22.5925 101.784V108.355H20.7434V108.357Z" fill="#1C26A8"/>
<path id="Vector_27" d="M24.3347 108.358V102.215C24.3684 102.189 24.4657 102.133 24.6244 102.044C24.7831 101.955 24.9914 101.866 25.2494 101.772C25.5073 101.681 25.8089 101.596 26.1521 101.521C26.4973 101.445 26.8703 101.408 27.2751 101.408C27.5191 101.408 27.7533 101.424 27.9735 101.459C28.1957 101.493 28.3901 101.546 28.5568 101.618C28.7254 101.689 28.8584 101.782 28.9536 101.895C29.0508 102.01 29.0984 102.151 29.0984 102.32C29.0984 102.565 29.0508 102.758 28.9536 102.9C28.8564 103.043 28.775 103.148 28.7056 103.218C28.6798 103.192 28.6243 103.164 28.5389 103.134C28.4536 103.105 28.3505 103.073 28.2334 103.039C28.1163 103.007 27.9894 102.982 27.8544 102.966C27.7195 102.948 27.5906 102.94 27.4656 102.94C27.0965 102.94 26.8108 102.978 26.6104 103.053C26.4081 103.128 26.2672 103.186 26.1858 103.231V108.36H24.3347V108.358Z" fill="#1C26A8"/>
<path id="Vector_28" d="M29.4 106.393C29.4 106.016 29.4576 105.685 29.5707 105.404C29.6837 105.122 29.8683 104.893 30.1242 104.712C30.3782 104.532 30.7075 104.397 31.1063 104.308C31.5051 104.221 31.9932 104.177 32.5686 104.177C32.9654 104.177 33.2947 104.189 33.5606 104.209C33.8245 104.23 33.9792 104.244 34.0229 104.254V104.058C34.0229 103.269 33.4515 102.877 32.3106 102.877H32.2908C32.0289 102.877 31.7968 102.898 31.5924 102.942C31.3881 102.986 31.2135 103.039 31.0666 103.101C30.9198 103.162 30.7968 103.223 30.6956 103.285C30.5944 103.346 30.5131 103.392 30.4536 103.424C30.3286 103.354 30.2194 103.237 30.1222 103.079C30.025 102.918 29.9774 102.74 29.9774 102.54C29.9774 102.339 30.0409 102.169 30.1659 102.026C30.2889 101.885 30.4555 101.77 30.6619 101.683C30.8662 101.596 31.1043 101.535 31.3722 101.499C31.64 101.463 31.9158 101.445 32.1936 101.445C32.7313 101.445 33.2233 101.491 33.6677 101.584C34.1142 101.675 34.4971 101.834 34.8205 102.056C35.1439 102.278 35.3919 102.577 35.5645 102.95C35.7391 103.323 35.8264 103.79 35.8264 104.351V108.29C35.8006 108.302 35.7034 108.32 35.5347 108.352C35.3661 108.381 35.1439 108.411 34.8661 108.437C34.5883 108.463 34.261 108.486 33.882 108.51C33.5031 108.534 33.0904 108.546 32.642 108.546C31.9892 108.546 31.4555 108.49 31.0369 108.379C30.6202 108.268 30.2889 108.116 30.0409 107.921C29.7949 107.729 29.6242 107.503 29.531 107.245C29.4397 106.988 29.3921 106.704 29.3921 106.395L29.4 106.393ZM31.2194 106.355C31.2194 106.48 31.2353 106.599 31.271 106.712C31.3047 106.827 31.3781 106.93 31.4873 107.023C31.5964 107.115 31.7511 107.19 31.9495 107.245C32.148 107.301 32.4059 107.331 32.7253 107.331C33.0606 107.331 33.3404 107.303 33.5586 107.247C33.7789 107.192 33.9296 107.148 34.011 107.119V105.404C33.9594 105.388 33.8106 105.37 33.5626 105.352C33.3146 105.337 33.0487 105.327 32.763 105.327C32.4356 105.327 32.1698 105.352 31.9694 105.406C31.767 105.459 31.6103 105.533 31.5011 105.626C31.392 105.717 31.3166 105.828 31.2789 105.955C31.2393 106.082 31.2214 106.217 31.2214 106.357L31.2194 106.355Z" fill="#1C26A8"/>
<path id="Vector_29" d="M36.6021 102.379C36.6021 102.194 36.6278 102.034 36.6814 101.899C36.735 101.764 36.7707 101.675 36.7886 101.631H37.8461V100.466C37.8461 100.164 37.9334 99.9563 38.1099 99.8433C38.2845 99.7303 38.5187 99.6729 38.8063 99.6729C39.0087 99.6729 39.1952 99.6947 39.3678 99.7402C39.5385 99.7858 39.6496 99.8176 39.6972 99.8354V101.631H41.1098C41.4114 101.631 41.6197 101.697 41.7388 101.83C41.8558 101.96 41.9154 102.145 41.9154 102.381C41.9154 102.565 41.8896 102.728 41.836 102.864C41.7824 103.001 41.7467 103.092 41.7289 103.136H39.6972V106.058C39.6972 106.446 39.7865 106.706 39.967 106.843C40.1476 106.978 40.3817 107.045 40.6694 107.045C40.7944 107.045 40.9154 107.029 41.0344 106.999C41.1535 106.97 41.2586 106.934 41.3499 106.892C41.4412 106.851 41.5205 106.811 41.582 106.773C41.6436 106.736 41.6793 106.71 41.6892 106.702L42.3737 107.806C42.3558 107.824 42.2963 107.872 42.1951 107.951C42.0939 108.03 41.9551 108.113 41.7785 108.201C41.6019 108.288 41.3836 108.367 41.1277 108.439C40.8698 108.508 40.5781 108.544 40.2507 108.544C39.4035 108.544 38.7905 108.329 38.4135 107.897C38.0345 107.465 37.8461 106.906 37.8461 106.218V103.132H37.4076C37.106 103.132 36.8977 103.067 36.7786 102.934C36.6596 102.803 36.6021 102.619 36.6021 102.377V102.379Z" fill="#1C26A8"/>
<path id="Vector_30" d="M42.6892 105.073C42.6892 104.518 42.7765 104.016 42.9491 103.568C43.1197 103.12 43.3638 102.736 43.6773 102.415C43.9908 102.096 44.3677 101.848 44.8062 101.671C45.2447 101.495 45.7328 101.408 46.2704 101.408C46.7744 101.408 47.2168 101.475 47.5998 101.61C47.9827 101.745 48.3021 101.933 48.564 102.171C48.8239 102.411 49.0204 102.686 49.1533 103.001C49.2862 103.317 49.3537 103.652 49.3537 104.003C49.3537 104.274 49.316 104.518 49.2426 104.74C49.1672 104.962 49.0481 105.148 48.8835 105.303C48.7208 105.458 48.5045 105.576 48.2366 105.66C47.9688 105.745 47.6355 105.787 47.2406 105.787H44.5959C44.6733 106.157 44.8836 106.467 45.2288 106.712C45.574 106.958 46.0284 107.081 46.5958 107.081C47.1633 107.081 47.5918 107.039 47.8954 106.954C48.1989 106.869 48.3855 106.811 48.4529 106.776L48.9549 108.08C48.937 108.098 48.8636 108.134 48.7327 108.187C48.6017 108.241 48.4231 108.296 48.1989 108.358C47.9728 108.417 47.7049 108.469 47.3934 108.514C47.0819 108.56 46.7407 108.582 46.3716 108.582C45.8419 108.582 45.3558 108.51 44.9114 108.369C44.4669 108.227 44.0781 108.013 43.7467 107.721C43.4174 107.432 43.1594 107.067 42.9729 106.627C42.7884 106.187 42.6952 105.668 42.6952 105.071L42.6892 105.073ZM44.5403 104.558H46.9073C47.199 104.558 47.3895 104.498 47.4748 104.379C47.5621 104.26 47.6037 104.084 47.6037 103.848C47.6037 103.723 47.5799 103.59 47.5323 103.449C47.4847 103.307 47.4093 103.18 47.3041 103.065C47.197 102.95 47.0581 102.857 46.8815 102.781C46.7049 102.706 46.4867 102.67 46.2308 102.67C45.947 102.67 45.699 102.732 45.4887 102.857C45.2784 102.982 45.1018 103.136 44.9629 103.321C44.8241 103.505 44.7189 103.709 44.6475 103.933C44.578 104.157 44.5403 104.365 44.5403 104.56V104.558Z" fill="#1C26A8"/>
<path id="Vector_31" d="M50.1394 107.656L50.8557 106.407C50.8814 106.433 50.9628 106.482 51.0977 106.556C51.2326 106.629 51.4132 106.708 51.6413 106.793C51.8675 106.879 52.1314 106.954 52.435 107.019C52.7385 107.085 53.0718 107.117 53.4329 107.117C53.9091 107.117 54.2444 107.061 54.4369 106.954C54.6293 106.845 54.7246 106.688 54.7246 106.482C54.7246 106.276 54.6452 106.137 54.4845 106.04C54.3238 105.941 54.0321 105.868 53.6075 105.816L52.7306 105.707C51.9667 105.624 51.3636 105.43 50.9291 105.124C50.4926 104.821 50.2743 104.349 50.2743 103.711C50.2743 103.404 50.3299 103.11 50.443 102.835C50.5561 102.559 50.7307 102.319 50.9668 102.117C51.2029 101.915 51.5163 101.753 51.9052 101.63C52.2941 101.509 52.7663 101.447 53.3218 101.447C53.9369 101.447 54.4329 101.495 54.8139 101.588C55.1948 101.681 55.4587 101.764 55.6095 101.838C56.0817 102.052 56.3178 102.345 56.3178 102.714C56.3178 102.944 56.2563 103.128 56.1352 103.267C56.0122 103.408 55.8833 103.517 55.7503 103.592C55.7325 103.576 55.6749 103.529 55.5797 103.451C55.4825 103.374 55.3436 103.293 55.1591 103.21C54.9746 103.126 54.7404 103.049 54.4607 102.98C54.1809 102.91 53.8496 102.876 53.4726 102.876C52.9528 102.876 52.5996 102.936 52.4112 103.053C52.2227 103.172 52.1274 103.321 52.1274 103.501C52.1274 103.665 52.2068 103.794 52.3635 103.887C52.5203 103.983 52.7822 104.048 53.1472 104.09L54.2861 104.236C55.1134 104.343 55.7166 104.559 56.0975 104.883C56.4765 105.208 56.667 105.65 56.667 106.213C56.667 106.91 56.3971 107.475 55.8555 107.904C55.3138 108.332 54.5103 108.546 53.4468 108.546C52.9429 108.546 52.4945 108.506 52.1036 108.425C51.7108 108.344 51.3735 108.252 51.0918 108.149C50.81 108.044 50.5898 107.947 50.4311 107.852C50.2723 107.757 50.1751 107.693 50.1414 107.658L50.1394 107.656Z" fill="#1C26A8"/>
<path id="Vector_32" d="M60.9089 108.357V100.323C60.9089 99.6354 61.2661 99.2925 61.9783 99.2925H64.1707C64.8493 99.2925 65.4147 99.35 65.8612 99.4669C66.373 99.5898 66.8294 99.7821 67.2282 100.04C67.629 100.298 67.9662 100.613 68.244 100.987C68.5218 101.36 68.7321 101.786 68.8789 102.266C69.0257 102.746 69.0972 103.261 69.0972 103.816C69.0972 104.504 68.9861 105.126 68.7599 105.683C68.5337 106.242 68.2123 106.72 67.7956 107.117C67.379 107.513 66.873 107.818 66.2778 108.034C65.6826 108.248 65.014 108.357 64.2759 108.357H60.9109H60.9089ZM62.8236 106.772H64.1965C64.6826 106.772 65.1052 106.696 65.4663 106.544C65.8274 106.391 66.131 106.181 66.375 105.919C66.6211 105.656 66.8056 105.342 66.9306 104.978C67.0536 104.615 67.1171 104.228 67.1171 103.816C67.1171 103.128 66.9623 102.535 66.6528 102.034C66.3433 101.532 65.8552 101.192 65.1886 101.005C65.0378 100.962 64.8711 100.93 64.6866 100.908C64.5021 100.886 64.3116 100.876 64.1192 100.876H62.8236V106.772Z" fill="#1C26A8"/>
<path id="Vector_33" d="M70.1487 105.073C70.1487 104.518 70.236 104.016 70.4086 103.568C70.5792 103.12 70.8233 102.736 71.1367 102.415C71.4502 102.096 71.8272 101.848 72.2657 101.671C72.7042 101.495 73.1922 101.408 73.7299 101.408C74.2339 101.408 74.6763 101.475 75.0592 101.61C75.4422 101.745 75.7616 101.933 76.0235 102.171C76.2834 102.411 76.4798 102.686 76.6128 103.001C76.7457 103.317 76.8131 103.652 76.8131 104.003C76.8131 104.274 76.7754 104.518 76.702 104.74C76.6266 104.962 76.5076 105.148 76.3429 105.303C76.1802 105.458 75.964 105.576 75.6961 105.66C75.4283 105.745 75.0949 105.787 74.7001 105.787H72.0554C72.1327 106.157 72.3431 106.467 72.6883 106.712C73.0335 106.958 73.4879 107.081 74.0553 107.081C74.6227 107.081 75.0513 107.039 75.3549 106.954C75.6584 106.869 75.8449 106.811 75.9124 106.776L76.4144 108.08C76.3965 108.098 76.3231 108.134 76.1921 108.187C76.0612 108.241 75.8826 108.296 75.6584 108.358C75.4322 108.417 75.1644 108.469 74.8529 108.514C74.5414 108.56 74.2001 108.582 73.8311 108.582C73.3014 108.582 72.8153 108.51 72.3708 108.369C71.9264 108.227 71.5375 108.013 71.2062 107.721C70.8768 107.432 70.6189 107.067 70.4324 106.627C70.2479 106.187 70.1546 105.668 70.1546 105.071L70.1487 105.073ZM71.9998 104.558H74.3668C74.6585 104.558 74.8489 104.498 74.9342 104.379C75.0215 104.26 75.0632 104.084 75.0632 103.848C75.0632 103.723 75.0394 103.59 74.9918 103.449C74.9442 103.307 74.8688 103.18 74.7636 103.065C74.6565 102.95 74.5176 102.857 74.341 102.781C74.1644 102.706 73.9462 102.67 73.6902 102.67C73.4065 102.67 73.1585 102.732 72.9482 102.857C72.7379 102.982 72.5613 103.136 72.4224 103.321C72.2835 103.505 72.1784 103.709 72.1069 103.933C72.0375 104.157 71.9998 104.365 71.9998 104.56V104.558Z" fill="#1C26A8"/>
<path id="Vector_34" d="M77.1304 102.462C77.1304 102.355 77.1463 102.252 77.178 102.157C77.2098 102.06 77.2594 101.972 77.3288 101.893C77.3983 101.814 77.4915 101.75 77.6125 101.703C77.7316 101.655 77.8843 101.631 78.0708 101.631C78.3327 101.631 78.5272 101.657 78.6542 101.709C78.7811 101.76 78.8506 101.79 78.8645 101.798C78.9716 102.107 79.1085 102.486 79.2732 102.934C79.4379 103.384 79.6125 103.84 79.799 104.305C79.9835 104.771 80.164 105.221 80.3406 105.653C80.5152 106.084 80.666 106.432 80.791 106.694C80.8346 106.607 80.918 106.417 81.045 106.121C81.1719 105.824 81.3148 105.479 81.4735 105.083C81.6322 104.688 81.7989 104.268 81.9695 103.824C82.1421 103.38 82.2989 102.963 82.4398 102.577C82.5568 102.26 82.6917 102.022 82.8445 101.865C82.9973 101.709 83.2413 101.629 83.5766 101.629C83.8603 101.629 84.0845 101.683 84.2512 101.788C84.4179 101.893 84.5171 101.968 84.5508 102.01C84.5071 102.178 84.4238 102.426 84.2968 102.755C84.1699 103.084 84.021 103.455 83.8484 103.869C83.6758 104.284 83.4893 104.716 83.2869 105.17C83.0846 105.622 82.8842 106.064 82.6838 106.49C82.4834 106.916 82.2929 107.305 82.1124 107.656C81.9318 108.006 81.781 108.282 81.66 108.484H79.8109C79.549 107.998 79.2791 107.473 79.0014 106.908C78.7236 106.343 78.4677 105.806 78.2335 105.293C77.9994 104.781 77.801 104.339 77.6363 103.967C77.4717 103.594 77.3744 103.356 77.3407 103.257C77.2812 103.116 77.2296 102.983 77.1899 102.86C77.1483 102.737 77.1284 102.605 77.1284 102.456L77.1304 102.462Z" fill="#1C26A8"/>
<path id="Vector_35" d="M84.9438 105.073C84.9438 104.518 85.0311 104.016 85.2038 103.568C85.3744 103.12 85.6184 102.736 85.9319 102.415C86.2454 102.096 86.6224 101.848 87.0608 101.671C87.4993 101.495 87.9874 101.408 88.5251 101.408C89.029 101.408 89.4715 101.475 89.8544 101.61C90.2373 101.745 90.5568 101.933 90.8187 102.171C91.0786 102.411 91.275 102.686 91.4079 103.001C91.5409 103.317 91.6083 103.652 91.6083 104.003C91.6083 104.274 91.5706 104.518 91.4972 104.74C91.4218 104.962 91.3028 105.148 91.1381 105.303C90.9754 105.458 90.7591 105.576 90.4913 105.66C90.2234 105.745 89.8901 105.787 89.4953 105.787H86.8505C86.9279 106.157 87.1382 106.467 87.4834 106.712C87.8287 106.958 88.283 107.081 88.8505 107.081C89.4179 107.081 89.8465 107.039 90.15 106.954C90.4536 106.869 90.6401 106.811 90.7075 106.776L91.2095 108.08C91.1917 108.098 91.1182 108.134 90.9873 108.187C90.8563 108.241 90.6778 108.296 90.4536 108.358C90.2274 108.417 89.9596 108.469 89.6481 108.514C89.3366 108.56 88.9953 108.582 88.6263 108.582C88.0965 108.582 87.6104 108.51 87.166 108.369C86.7216 108.227 86.3327 108.013 86.0013 107.721C85.672 107.432 85.4141 107.067 85.2276 106.627C85.043 106.187 84.9498 105.668 84.9498 105.071L84.9438 105.073ZM86.795 104.558H89.162C89.4536 104.558 89.6441 104.498 89.7294 104.379C89.8167 104.26 89.8584 104.084 89.8584 103.848C89.8584 103.723 89.8346 103.59 89.7869 103.449C89.7393 103.307 89.6639 103.18 89.5588 103.065C89.4516 102.95 89.3128 102.857 89.1362 102.781C88.9596 102.706 88.7413 102.67 88.4854 102.67C88.2017 102.67 87.9537 102.732 87.7434 102.857C87.533 102.982 87.3565 103.136 87.2176 103.321C87.0787 103.505 86.9735 103.709 86.9021 103.933C86.8327 104.157 86.795 104.365 86.795 104.56V104.558Z" fill="#1C26A8"/>
<path id="Vector_36" d="M92.9336 108.357V99.4272C92.9336 99.1259 93.0209 98.9197 93.1975 98.8048C93.3721 98.6898 93.6062 98.6343 93.8939 98.6343C94.0963 98.6343 94.2828 98.6561 94.4554 98.6997C94.626 98.7433 94.7371 98.773 94.7827 98.7909V108.357H92.9336Z" fill="#1C26A8"/>
<path id="Vector_37" d="M96.1755 104.998C96.1755 104.494 96.2628 104.024 96.4354 103.588C96.6061 103.152 96.8541 102.774 97.1755 102.454C97.4989 102.133 97.8838 101.879 98.3322 101.691C98.7826 101.501 99.2826 101.408 99.8381 101.408C100.394 101.408 100.894 101.503 101.344 101.691C101.792 101.879 102.177 102.133 102.499 102.454C102.818 102.774 103.064 103.152 103.237 103.588C103.409 104.024 103.495 104.494 103.495 104.998C103.495 105.501 103.409 105.967 103.237 106.401C103.064 106.835 102.818 107.212 102.499 107.535C102.179 107.856 101.792 108.112 101.344 108.3C100.894 108.49 100.394 108.584 99.8381 108.584C99.2826 108.584 98.7806 108.488 98.3322 108.3C97.8838 108.112 97.4969 107.856 97.1755 107.535C96.8541 107.212 96.6061 106.835 96.4354 106.399C96.2628 105.963 96.1755 105.497 96.1755 105V104.998ZM98.0525 104.998C98.0525 105.299 98.0902 105.578 98.1656 105.836C98.2409 106.096 98.356 106.318 98.5108 106.506C98.6655 106.696 98.852 106.845 99.0723 106.956C99.2925 107.065 99.5465 107.121 99.8401 107.121C100.134 107.121 100.388 107.065 100.608 106.956C100.828 106.845 101.013 106.696 101.165 106.506C101.318 106.318 101.431 106.094 101.509 105.836C101.584 105.578 101.622 105.299 101.622 104.998C101.622 104.696 101.584 104.415 101.509 104.155C101.433 103.895 101.318 103.671 101.165 103.481C101.013 103.291 100.826 103.142 100.604 103.033C100.382 102.924 100.128 102.869 99.8401 102.869C99.5524 102.869 99.2905 102.924 99.0723 103.033C98.852 103.142 98.6655 103.293 98.5108 103.481C98.356 103.671 98.2409 103.895 98.1656 104.155C98.0902 104.415 98.0525 104.696 98.0525 104.998Z" fill="#1C26A8"/>
<path id="Vector_38" d="M104.828 111V102.076C104.872 102.05 104.967 101.998 105.12 101.925C105.271 101.85 105.473 101.774 105.727 101.699C105.981 101.624 106.292 101.556 106.663 101.497C107.032 101.437 107.457 101.408 107.935 101.408C108.526 101.408 109.054 101.497 109.522 101.677C109.991 101.858 110.389 102.109 110.721 102.435C111.054 102.76 111.306 103.15 111.483 103.608C111.659 104.066 111.749 104.571 111.749 105.124C111.749 105.678 111.663 106.147 111.497 106.558C111.328 106.968 111.1 107.311 110.814 107.588C110.526 107.864 110.197 108.072 109.822 108.213C109.447 108.352 109.044 108.423 108.618 108.423C108.308 108.423 108.038 108.395 107.806 108.338C107.574 108.282 107.378 108.217 107.213 108.142C107.05 108.066 106.925 107.993 106.836 107.921C106.749 107.852 106.695 107.803 106.679 107.777V110.998H104.828V111ZM106.679 106.104C106.713 106.173 106.767 106.254 106.836 106.352C106.907 106.449 107.003 106.54 107.122 106.623C107.243 106.708 107.39 106.778 107.566 106.835C107.741 106.893 107.957 106.922 108.209 106.922C108.721 106.922 109.118 106.748 109.403 106.393C109.689 106.04 109.832 105.559 109.832 104.944C109.832 104.673 109.792 104.413 109.713 104.165C109.634 103.915 109.514 103.695 109.356 103.501C109.197 103.307 109.003 103.154 108.77 103.039C108.538 102.926 108.268 102.869 107.959 102.869C107.538 102.869 107.233 102.898 107.044 102.962C106.856 103.025 106.733 103.069 106.677 103.093V106.102L106.679 106.104Z" fill="#1C26A8"/>
<path id="Vector_39" d="M113.07 108.357V102.04C113.104 102.022 113.205 101.978 113.373 101.907C113.542 101.835 113.76 101.762 114.028 101.687C114.298 101.611 114.615 101.546 114.981 101.489C115.348 101.433 115.748 101.405 116.187 101.405C116.724 101.405 117.221 101.485 117.679 101.647C118.137 101.81 118.504 102.075 118.784 102.446C119.004 102.161 119.306 101.917 119.691 101.711C120.076 101.506 120.558 101.403 121.137 101.403C121.524 101.403 121.889 101.459 122.232 101.566C122.577 101.675 122.877 101.837 123.131 102.054C123.387 102.268 123.587 102.535 123.732 102.852C123.875 103.17 123.946 103.536 123.946 103.947V108.353H122.097V104.466C122.097 103.445 121.667 102.934 120.808 102.934C120.377 102.934 120.04 103.076 119.792 103.362C119.544 103.647 119.421 104.081 119.421 104.664V108.351H117.57V104.567C117.57 104.014 117.455 103.604 117.228 103.334C117.002 103.066 116.637 102.932 116.135 102.932C115.766 102.932 115.492 102.963 115.318 103.027C115.143 103.088 115.01 103.142 114.919 103.183V108.351H113.068L113.07 108.357Z" fill="#1C26A8"/>
<path id="Vector_40" d="M125.248 105.073C125.248 104.518 125.335 104.016 125.508 103.568C125.679 103.12 125.923 102.736 126.236 102.415C126.55 102.096 126.927 101.848 127.365 101.671C127.804 101.495 128.292 101.408 128.829 101.408C129.333 101.408 129.776 101.475 130.159 101.61C130.542 101.745 130.861 101.933 131.123 102.171C131.383 102.411 131.579 102.686 131.712 103.001C131.845 103.317 131.913 103.652 131.913 104.003C131.913 104.274 131.875 104.518 131.801 104.74C131.726 104.962 131.607 105.148 131.442 105.303C131.28 105.458 131.063 105.576 130.795 105.66C130.528 105.745 130.194 105.787 129.799 105.787H127.155C127.232 106.157 127.442 106.467 127.788 106.712C128.133 106.958 128.587 107.081 129.155 107.081C129.722 107.081 130.151 107.039 130.454 106.954C130.758 106.869 130.944 106.811 131.014 106.776L131.516 108.08C131.498 108.098 131.424 108.134 131.293 108.187C131.163 108.241 130.984 108.296 130.76 108.358C130.534 108.417 130.266 108.469 129.954 108.514C129.643 108.56 129.301 108.582 128.932 108.582C128.403 108.582 127.917 108.51 127.472 108.369C127.028 108.227 126.639 108.013 126.308 107.721C125.978 107.432 125.72 107.067 125.534 106.627C125.349 106.187 125.256 105.668 125.256 105.071L125.248 105.073ZM127.099 104.558H129.466C129.758 104.558 129.948 104.498 130.034 104.379C130.121 104.26 130.163 104.084 130.163 103.848C130.163 103.723 130.139 103.59 130.091 103.449C130.044 103.307 129.968 103.18 129.863 103.065C129.756 102.95 129.617 102.857 129.44 102.781C129.264 102.706 129.046 102.67 128.79 102.67C128.506 102.67 128.258 102.732 128.048 102.857C127.837 102.982 127.661 103.136 127.522 103.321C127.383 103.505 127.278 103.709 127.206 103.933C127.137 104.157 127.099 104.365 127.099 104.56V104.558Z" fill="#1C26A8"/>
<path id="Vector_41" d="M133.172 108.357V102.04C133.206 102.022 133.311 101.978 133.488 101.907C133.664 101.835 133.893 101.762 134.168 101.687C134.446 101.611 134.772 101.546 135.146 101.489C135.521 101.433 135.928 101.405 136.367 101.405C136.861 101.405 137.313 101.465 137.722 101.588C138.131 101.711 138.482 101.891 138.773 102.129C139.067 102.367 139.291 102.66 139.448 103.005C139.605 103.352 139.684 103.748 139.684 104.2V108.357H137.833V104.573C137.833 103.483 137.327 102.938 136.315 102.938C135.946 102.938 135.66 102.969 135.46 103.033C135.26 103.094 135.113 103.148 135.023 103.189V108.357H133.172Z" fill="#1C26A8"/>
<path id="Vector_42" d="M140.454 102.379C140.454 102.194 140.48 102.034 140.533 101.899C140.587 101.764 140.623 101.675 140.64 101.631H141.698V100.466C141.698 100.164 141.785 99.9563 141.962 99.8433C142.136 99.7303 142.37 99.6729 142.658 99.6729C142.861 99.6729 143.047 99.6947 143.22 99.7402C143.39 99.7858 143.501 99.8176 143.549 99.8354V101.631H144.962C145.263 101.631 145.472 101.697 145.591 101.83C145.708 101.96 145.767 102.145 145.767 102.381C145.767 102.565 145.741 102.728 145.688 102.864C145.634 103.001 145.599 103.092 145.581 103.136H143.549V106.058C143.549 106.446 143.638 106.706 143.819 106.843C143.999 106.978 144.233 107.045 144.521 107.045C144.646 107.045 144.767 107.029 144.886 106.999C145.005 106.97 145.11 106.934 145.202 106.892C145.293 106.851 145.372 106.811 145.434 106.773C145.495 106.736 145.531 106.71 145.541 106.702L146.225 107.806C146.208 107.824 146.148 107.872 146.047 107.951C145.946 108.03 145.807 108.113 145.63 108.201C145.454 108.288 145.235 108.367 144.98 108.439C144.722 108.508 144.43 108.544 144.103 108.544C143.255 108.544 142.642 108.329 142.265 107.897C141.886 107.465 141.698 106.906 141.698 106.218V103.132H141.259C140.958 103.132 140.749 103.067 140.63 102.934C140.511 102.803 140.454 102.619 140.454 102.377V102.379Z" fill="#1C26A8"/>
<path id="Vector_43" d="M149.735 108.357V100.323C149.735 99.6354 150.092 99.2925 150.807 99.2925H153.424C153.953 99.2925 154.408 99.3559 154.787 99.4828C155.166 99.6096 155.481 99.7821 155.733 99.9982C155.985 100.216 156.172 100.472 156.291 100.765C156.41 101.059 156.471 101.374 156.471 101.709C156.471 102.044 156.414 102.331 156.297 102.571C156.18 102.813 156.051 103.011 155.91 103.172C155.769 103.33 155.632 103.453 155.497 103.537C155.364 103.62 155.279 103.671 155.243 103.687C155.394 103.723 155.565 103.79 155.757 103.891C155.949 103.992 156.132 104.129 156.299 104.302C156.467 104.474 156.606 104.686 156.721 104.938C156.834 105.19 156.892 105.489 156.892 105.834C156.892 106.104 156.844 106.389 156.747 106.688C156.65 106.99 156.483 107.261 156.245 107.505C156.005 107.749 155.688 107.953 155.287 108.114C154.886 108.276 154.384 108.357 153.779 108.357H149.735ZM151.612 102.972H153.263C153.711 102.972 154.039 102.861 154.247 102.637C154.455 102.413 154.561 102.159 154.561 101.877C154.561 101.596 154.461 101.348 154.259 101.14C154.059 100.932 153.735 100.827 153.289 100.827H151.612V102.972ZM151.612 106.823H153.644C154.1 106.823 154.432 106.704 154.64 106.466C154.848 106.23 154.953 105.963 154.953 105.669C154.953 105.376 154.848 105.109 154.638 104.867C154.428 104.625 154.096 104.506 153.644 104.506H151.612V106.825V106.823Z" fill="#1C26A8"/>
<path id="Vector_44" d="M157.789 106.393C157.789 106.016 157.846 105.685 157.959 105.404C158.072 105.122 158.257 104.893 158.513 104.712C158.767 104.532 159.096 104.397 159.495 104.308C159.894 104.221 160.382 104.177 160.957 104.177C161.354 104.177 161.683 104.189 161.949 104.209C162.213 104.23 162.368 104.244 162.412 104.254V104.058C162.412 103.269 161.84 102.877 160.699 102.877H160.679C160.418 102.877 160.185 102.898 159.981 102.942C159.777 102.986 159.602 103.039 159.455 103.101C159.308 103.162 159.185 103.223 159.084 103.285C158.983 103.346 158.902 103.392 158.842 103.424C158.717 103.354 158.608 103.237 158.511 103.079C158.414 102.918 158.366 102.74 158.366 102.54C158.366 102.339 158.43 102.169 158.555 102.026C158.678 101.885 158.844 101.77 159.051 101.683C159.255 101.596 159.493 101.535 159.761 101.499C160.029 101.463 160.304 101.445 160.582 101.445C161.12 101.445 161.612 101.491 162.056 101.584C162.503 101.675 162.886 101.834 163.209 102.056C163.533 102.278 163.781 102.577 163.955 102.95C164.13 103.323 164.217 103.79 164.217 104.351V108.29C164.191 108.302 164.094 108.32 163.925 108.352C163.757 108.381 163.535 108.411 163.257 108.437C162.979 108.463 162.652 108.486 162.273 108.51C161.894 108.534 161.481 108.546 161.033 108.546C160.38 108.546 159.846 108.49 159.427 108.379C159.011 108.268 158.68 108.116 158.432 107.921C158.185 107.729 158.015 107.503 157.922 107.245C157.83 106.988 157.783 106.704 157.783 106.395L157.789 106.393ZM159.608 106.355C159.608 106.48 159.624 106.599 159.66 106.712C159.693 106.827 159.767 106.93 159.876 107.023C159.985 107.115 160.14 107.19 160.338 107.245C160.537 107.301 160.795 107.331 161.114 107.331C161.449 107.331 161.729 107.303 161.947 107.247C162.167 107.192 162.318 107.148 162.4 107.119V105.404C162.348 105.388 162.199 105.37 161.951 105.352C161.703 105.337 161.437 105.327 161.152 105.327C160.824 105.327 160.558 105.352 160.358 105.406C160.156 105.459 159.999 105.533 159.89 105.626C159.781 105.717 159.705 105.828 159.668 105.955C159.628 106.082 159.61 106.217 159.61 106.357L159.608 106.355Z" fill="#1C26A8"/>
<path id="Vector_45" d="M165.868 108.357V102.04C165.901 102.022 166.007 101.978 166.183 101.907C166.36 101.835 166.588 101.762 166.864 101.687C167.141 101.611 167.467 101.546 167.842 101.489C168.217 101.433 168.624 101.405 169.062 101.405C169.556 101.405 170.008 101.465 170.417 101.588C170.826 101.711 171.177 101.891 171.469 102.129C171.762 102.367 171.987 102.66 172.143 103.005C172.3 103.352 172.379 103.748 172.379 104.2V108.357H170.528V104.573C170.528 103.483 170.022 102.938 169.01 102.938C168.641 102.938 168.356 102.969 168.155 103.033C167.955 103.094 167.808 103.148 167.719 103.189V108.357H165.868Z" fill="#1C26A8"/>
<path id="Vector_46" d="M174.022 108.357V99.4272C174.022 99.1259 174.11 98.9197 174.288 98.8048C174.465 98.6898 174.697 98.6343 174.987 98.6343C175.189 98.6343 175.375 98.6561 175.55 98.6997C175.723 98.7433 175.83 98.773 175.873 98.7909V104.151C176.024 104.028 176.197 103.879 176.395 103.707C176.594 103.534 176.796 103.36 177.004 103.186C177.213 103.009 177.411 102.839 177.601 102.676C177.79 102.514 177.949 102.381 178.08 102.278C178.213 102.161 178.332 102.064 178.437 101.984C178.542 101.905 178.647 101.842 178.752 101.794C178.857 101.746 178.967 101.713 179.078 101.691C179.189 101.669 179.314 101.659 179.453 101.659C179.637 101.659 179.8 101.687 179.937 101.743C180.074 101.798 180.189 101.863 180.282 101.939C180.373 102.014 180.445 102.085 180.496 102.151C180.548 102.218 180.586 102.264 180.605 102.29C180.49 102.407 180.3 102.577 180.034 102.805C179.768 103.033 179.488 103.269 179.189 103.517C178.891 103.764 178.603 103.996 178.332 104.216C178.058 104.436 177.855 104.595 177.723 104.694C178.024 104.938 178.328 105.215 178.635 105.523C178.943 105.83 179.236 106.147 179.518 106.472C179.8 106.799 180.07 107.124 180.324 107.448C180.58 107.773 180.804 108.076 180.998 108.359H178.703C178.5 108.088 178.276 107.81 178.028 107.529C177.782 107.245 177.532 106.972 177.28 106.71C177.028 106.448 176.78 106.205 176.538 105.979C176.294 105.755 176.074 105.556 175.871 105.39V108.359H174.02L174.022 108.357Z" fill="#1C26A8"/>
</g>
</g>
<defs>
<clipPath id="clip0_4_3843">
<rect width="181" height="111" fill="white"/>
</clipPath>
</defs>
</svg>
